<?xml version="1.0" standalone="no"?><!DOCTYPE svg PUBLIC "-//W3C//DTD SVG 1.1//EN" "http://www.w3.org/Graphics/SVG/1.1/DTD/svg11.dtd"><svg t="1763454590875" class="icon" viewBox="0 0 1024 1024" version="1.1" xmlns="http://www.w3.org/2000/svg" p-id="5001" xmlns:xlink="http://www.w3.org/1999/xlink" width="200" height="200"><path d="M426.097778 472.746667H190.008889c-26.168889 0-47.217778-21.048889-47.217778-47.217778V188.871111c0-26.168889 21.048889-47.217778 47.217778-47.217778h236.088889c26.168889 0 47.217778 21.048889 47.217778 47.217778v236.088889c0 26.737778-21.048889 47.786667-47.217778 47.786667zM413.582222 599.04v216.746667H196.835556v-216.746667h216.746666m9.671111-56.888889H187.164444c-26.168889 0-47.217778 21.048889-47.217777 47.217778v236.088889c0 26.168889 21.048889 47.217778 47.217777 47.217778h236.088889c26.168889 0 47.217778-21.048889 47.217778-47.217778v-236.088889c0-26.168889-21.048889-47.217778-47.217778-47.217778zM893.724444 215.04c0 15.928889-13.084444 29.013333-29.013333 29.013333H552.391111c-15.928889 0-29.013333-13.084444-29.013333-29.013333V170.666667c0-15.928889 13.084444-29.013333 29.013333-29.013334h312.32c15.928889 0 29.013333 13.084444 29.013333 29.013334v44.373333zM893.724444 529.066667c0 15.928889-13.084444 29.013333-29.013333 29.013333H552.391111c-15.928889 0-29.013333-13.084444-29.013333-29.013333v-43.804445c0-15.928889 13.084444-29.013333 29.013333-29.013333h312.32c15.928889 0 29.013333 13.084444 29.013333 29.013333v43.804445zM882.346667 843.662222c0 15.928889-13.084444 29.013333-29.013334 29.013334H541.013333c-15.928889 0-29.013333-13.084444-29.013333-29.013334v-44.373333c0-15.928889 13.084444-29.013333 29.013333-29.013333H853.333333c15.928889 0 29.013333 13.084444 29.013334 29.013333v44.373333z" p-id="5002" fill="#99f7a0"></path></svg>